<svg width="183" height="128" viewBox="0 0 183 128" fill="none" xmlns="http://www.w3.org/2000/svg">
<path d="M76.3393 84.9794L25.8303 1.36745C23.7834 -2.02021 20.8972 1.27412 20.8972 6.99758V48.7166C20.8972 51.4736 19.9057 53.7085 18.6825 53.7085H3.13128C1.40225 53.7085 -8.02588e-07 56.8666 -8.02588e-07 60.7663V122.236C-8.02588e-07 126.133 1.40113 129.294 3.13128 129.294H18.6825C19.9057 129.294 20.8972 131.529 20.8972 134.286V176.002C20.8972 181.726 23.7834 185.02 25.8303 181.633L76.3393 98.0231C78.2921 94.7893 78.2921 88.2132 76.3393 84.9794Z" transform="translate(183 50.1963) rotate(90)" fill="#D3DEDE"/>
<path d="M5.4705 3.92595e-06H4.36952C1.9552 3.92595e-06 0 3.16065 0 7.05785V68.5277C0 72.4249 1.9552 75.5855 4.36952 75.5855H5.4705C7.88326 75.5855 9.84002 72.4249 9.84002 68.5277V7.05785C9.83846 3.16065 7.88326 3.92595e-06 5.4705 3.92595e-06Z" transform="translate(129.291 17.5684) rotate(90)" fill="#D3DEDE"/>
<path d="M5.4705 3.92595e-06H4.36952C1.9552 3.92595e-06 0 3.16065 0 7.05785V68.5277C0 72.4249 1.9552 75.5855 4.36952 75.5855H5.4705C7.88326 75.5855 9.84002 72.4249 9.84002 68.5277V7.05785C9.83846 3.16065 7.88326 3.92595e-06 5.4705 3.92595e-06Z" transform="translate(129.291) rotate(90)" fill="#D3DEDE"/>
<path d="M5.4705 3.92595e-06H4.36953C1.95676 3.92595e-06 7.387e-07 3.15813 7.387e-07 7.05785V68.5277C7.387e-07 72.4249 1.9552 75.5855 4.36953 75.5855H5.4705C7.88326 75.5855 9.84002 72.4274 9.84002 68.5277V7.05785C9.84002 3.16065 7.88326 3.92595e-06 5.4705 3.92595e-06Z" transform="translate(129.291 33.5049) rotate(90)" fill="#D3DEDE"/>
</svg>
