<svg width="250" height="250" viewBox="0 0 250 250" version="1.1" xmlns="http://www.w3.org/2000/svg" xmlns:xlink="http://www.w3.org/1999/xlink">
<g id="Canvas" fill="none">
<g id="Color (Blue)_logo with words" clip-path="url(#clip0)">
<rect width="250" height="250" fill="white"/>
<g id="Seamhub_logo_vertical_dark">
<g id="Vector">
<path d="M 31.7208 13.3255L 32.0104 13.1704C 33.9411 12.0848 50.4483 3.28347 62.3026 22.4564L 77.5162 54.4435L 86.6869 50.0428L 71.3574 17.8231L 71.1064 17.3578C 57.3214 -5.30458 36.3544 -1.15595 27.0293 4.27216C 4.59498 15.6712 6.6994 36.7439 10.9662 46.2819L 40.5633 111.768L 49.8112 107.561L 36.9722 79.0057L 53.6725 71.2512L 66.4728 99.1673C 67.3223 101.106 74.1954 118.282 55.1591 128.014L 54.8695 128.169C 54.1358 128.615 36.8178 138.696 24.5581 119.057L 9.15135 87.1479L -2.94596e-06 91.5873L 15.4453 123.729L 15.6963 124.195C 23.8051 137.377 34.3079 141.429 43.4979 141.429C 49.2392 141.422 54.8805 139.919 59.8699 137.067C 82.227 125.552 79.9875 104.595 75.6821 94.9023L 45.7181 29.6292L 36.4896 33.9136L 49.3671 61.9459L 32.7248 69.7003L 20.2527 42.0751C 19.9052 41.2997 12.1053 23.1736 31.7208 13.3255Z" transform="translate(81.3592 35)" fill="#183038"/>
</g>
<g id="Vector_2">
<path d="M 10.5028 7.75465C 9.96078 7.41444 9.37659 7.14722 8.76522 6.95983C 8.07018 6.72719 7.2593 6.51394 6.33258 6.30069L 4.80735 5.89358C 4.4423 5.79027 4.09193 5.64042 3.7648 5.4477C 3.52328 5.31822 3.32265 5.1235 3.1856 4.88551C 3.05413 4.6347 2.98773 4.35467 2.99253 4.07128C 2.96777 3.71922 3.03919 3.36705 3.1991 3.05275C 3.35901 2.73845 3.60133 2.47394 3.89994 2.28776C 4.57519 1.90074 5.34293 1.70633 6.12021 1.72556C 6.89128 1.72539 7.65621 1.86324 8.37908 2.13267C 9.09102 2.40135 9.74604 2.80256 10.3097 3.31522L 11.3909 1.86126C 10.6964 1.27638 9.90597 0.817205 9.05482 0.504242C 8.10038 0.164271 7.09429 -0.00629133 6.08159 0.000198431C 5.36349 -0.00505676 4.64834 0.0928687 3.95786 0.290993C 3.34216 0.453177 2.76466 0.736526 2.25888 1.1246C 1.77044 1.48568 1.37359 1.95722 1.10048 2.50101C 0.800235 3.10158 0.654228 3.76798 0.675733 4.43962C 0.662345 4.9192 0.754643 5.39583 0.946027 5.83543C 1.14826 6.23308 1.44706 6.57313 1.81483 6.82412C 2.2827 7.12472 2.78939 7.35954 3.32075 7.52203C 3.93856 7.73527 4.67221 7.92913 5.5217 8.14238L 7.27861 8.60764C 7.70449 8.73057 8.11813 8.89282 8.51423 9.0923C 8.80282 9.24854 9.05338 9.46702 9.24789 9.73204C 9.42243 9.9956 9.51022 10.3075 9.49887 10.6238C 9.51302 10.9663 9.4365 11.3064 9.2771 11.6095C 9.11769 11.9126 8.88111 12.1678 8.59146 12.3492C 7.85139 12.7887 6.99805 12.9979 6.13951 12.9501C 5.24351 12.9552 4.35396 12.7976 3.51381 12.4849C 2.62094 12.1259 1.78259 11.643 1.02325 11.0503L -5.89192e-07 12.6593C 0.8379 13.3502 1.80191 13.8704 2.83808 14.1908C 3.92446 14.5375 5.05753 14.714 6.19744 14.7143C 7.64653 14.7936 9.08043 14.3842 10.2711 13.5511C 10.7619 13.1929 11.1576 12.7193 11.4236 12.1717C 11.6895 11.6241 11.8175 11.0194 11.7964 10.4106C 11.8116 9.87874 11.692 9.35175 11.4488 8.87905C 11.2305 8.43174 10.9056 8.0455 10.5028 7.75465L 10.5028 7.75465Z" transform="translate(34 199.266)" fill="#183038"/>
</g>
<g id="Vector_3">
<path d="M 12.4338 2.1916C 11.809 1.50704 11.0454 0.964955 10.1942 0.601921C 9.28494 0.189355 8.29592 -0.0158776 7.29824 0.0009554C 6.29661 -0.0125741 5.30335 0.185582 4.38294 0.582545C 3.51423 0.93741 2.72504 1.46328 2.06189 2.12917C 1.39873 2.79505 0.875017 3.58749 0.521607 4.45977C -0.173871 6.28207 -0.173871 8.29821 0.521607 10.1205C 0.856848 10.9939 1.36225 11.7914 2.00822 12.4662C 2.64016 13.1512 3.41022 13.6932 4.2671 14.0559C 5.18802 14.4512 6.18093 14.6493 7.1824 14.6375C 8.53523 14.6469 9.86678 14.2992 11.0437 13.6294C 11.5611 13.319 12.0351 12.9409 12.4531 12.505C 12.8486 12.074 13.1744 11.5834 13.4184 11.0511L 11.3526 10.4889C 11.219 10.8577 11.0007 11.1897 10.7155 11.4582C 10.4402 11.7516 10.1211 12.0002 9.76949 12.1948C 9.39975 12.4075 9.0038 12.5704 8.59179 12.6795C 8.18356 12.7958 7.7612 12.8545 7.33686 12.854C 6.7339 12.8565 6.13653 12.7379 5.57995 12.505C 5.03647 12.2652 4.53968 11.9304 4.11265 11.5163C 3.66939 11.0893 3.30928 10.5831 3.05078 10.0236C 2.7755 9.41164 2.61201 8.75499 2.56811 8.08497L 14.2679 8.08497C 14.2679 8.08497 14.2679 7.87173 14.2679 7.69725L 14.2679 7.15444C 14.2753 6.22582 14.1048 5.30444 13.766 4.44038C 13.4742 3.60981 13.0214 2.84551 12.4338 2.1916L 12.4338 2.1916ZM 2.5295 6.37899C 2.57557 5.74041 2.73923 5.11595 3.01217 4.53732C 3.25558 3.99031 3.60319 3.49638 4.03542 3.08336C 4.4558 2.6707 4.95489 2.34758 5.50273 2.13343C 6.64835 1.66882 7.92883 1.66882 9.07445 2.13343C 9.62357 2.34755 10.1278 2.66319 10.5611 3.06397C 10.9872 3.48658 11.3396 3.97807 11.6036 4.51793C 11.902 5.12258 12.0729 5.78254 12.1056 6.45654L 2.5295 6.37899Z" transform="translate(58.3647 199.265)" fill="#183038"/>
</g>
<g id="Vector_4">
<path d="M 12.3757 11.5261L 12.3757 5.71022C 12.4228 4.93817 12.3079 4.16478 12.0385 3.44011C 11.7692 2.71544 11.3512 2.05565 10.8118 1.50344C 9.62278 0.452534 8.06836 -0.0839953 6.48713 0.0107106C 4.50036 0.0854417 2.58243 0.76117 0.984734 1.94932L 1.77631 3.5002C 3.06274 2.49457 4.62704 1.91231 6.25545 1.833C 6.7603 1.79734 7.26698 1.86866 7.74261 2.04233C 8.21823 2.21599 8.65218 2.48813 9.0163 2.84108C 9.35408 3.20351 9.61542 3.63075 9.78463 4.09715C 9.95383 4.56354 10.0274 5.05948 10.0009 5.55514L 10.0009 6.69892C 9.37477 6.46524 8.72848 6.29003 8.07028 6.1755C 7.38122 6.05969 6.6838 6.00133 5.98516 6.00102C 5.17656 5.99025 4.37053 6.09469 3.59114 6.3112C 2.90428 6.51217 2.25288 6.81959 1.66047 7.22235C 1.15795 7.5764 0.742047 8.0404 0.44415 8.57938C 0.148381 9.12664 -0.00439392 9.74026 9.77275e-05 10.3629C -0.00264479 10.9535 0.117923 11.5381 0.354025 12.079C 0.590128 12.62 0.936522 13.1052 1.37087 13.5035C 1.80705 13.9148 2.31844 14.2373 2.87678 14.4534C 3.49465 14.6816 4.14918 14.7933 4.80745 14.7829C 5.87902 14.7932 6.93988 14.5682 7.91582 14.1238C 8.84688 13.6614 9.6445 12.9673 10.2326 12.1077L 10.2326 13.1157C 10.287 13.4974 10.4631 13.8511 10.7346 14.1238C 10.8823 14.268 11.0578 14.3803 11.2504 14.4536C 11.4431 14.527 11.6486 14.5599 11.8544 14.5503L 12.3757 14.5503C 12.5814 14.5635 12.7877 14.5635 12.9935 14.5503L 12.9935 12.4954C 12.5816 12.4178 12.3757 12.0947 12.3757 11.5261ZM 10.0009 10.169C 9.98769 10.3696 9.93477 10.5654 9.84526 10.7452C 9.75576 10.9249 9.63147 11.0849 9.47966 11.2159C 9.0515 11.7806 8.47718 12.2165 7.81929 12.476C 7.0706 12.8039 6.26132 12.969 5.44457 12.9606C 4.63513 12.9763 3.84944 12.6857 3.24362 12.1464C 2.9768 11.8925 2.76057 11.5898 2.60649 11.2547C 2.45029 10.9007 2.3713 10.5174 2.37481 10.1303C 2.37828 9.73743 2.48331 9.35223 2.6796 9.0124C 2.8759 8.67256 3.15673 8.38975 3.4946 8.19166C 4.36332 7.65548 5.3718 7.39219 6.39059 7.43559C 7.62548 7.43556 8.84966 7.66564 10.0009 8.11411L 10.0009 10.169Z" transform="translate(84.9308 199.216)" fill="#183038"/>
</g>
<g id="Vector_5">
<path d="M 20.3492 1.69631C 20.0316 1.17097 19.5778 0.742131 19.0364 0.455597C 18.4368 0.156242 17.7753 0.00345277 17.1057 0.00970922C 15.9698 -0.008958 14.8534 0.308229 13.8957 0.921791C 12.9379 1.53535 12.181 2.41819 11.7191 3.46044C 11.5911 2.5108 11.1411 1.63448 10.4449 0.979016C 10.0601 0.635633 9.61076 0.372988 9.12336 0.206526C 8.63597 0.0400633 8.12034 -0.0268551 7.60682 0.00970922C 6.5112 -0.00692007 5.43336 0.288863 4.49845 0.862704C 3.55568 1.46227 2.784 2.29724 2.25888 3.28597L 2.25888 0.242348L 1.17838e-06 0.242348L 1.17838e-06 14.4136L 2.37472 14.4136L 2.37472 5.86433C 2.64895 4.82028 3.22704 3.88207 4.03509 3.16966C 4.74035 2.51628 5.66263 2.14999 6.62218 2.14218C 7.0335 2.11657 7.44432 2.19977 7.8136 2.38347C 8.18287 2.56717 8.4977 2.84493 8.72661 3.18903C 9.27519 4.19582 9.5232 5.34003 9.44095 6.48468L 9.44095 14.4136L 11.8157 14.4136L 11.8157 5.90309C 12.096 4.86526 12.6574 3.92578 13.4374 3.18903C 14.1495 2.51957 15.0876 2.14556 16.0631 2.14218C 16.4781 2.12476 16.8906 2.21347 17.2621 2.39996C 17.6336 2.58646 17.9518 2.86464 18.1869 3.20842C 18.7288 4.21069 18.9765 5.34674 18.9012 6.48468L 18.9012 14.4136L 21.2759 14.4136L 21.2759 5.94186C 21.2776 5.15504 21.2065 4.36977 21.0635 3.59614C 20.9352 2.92655 20.6936 2.28399 20.3492 1.69631Z" transform="translate(111.787 199.256)" fill="#183038"/>
</g>
<g id="Vector_6">
<path d="M 11.2751 7.09533C 10.923 6.57098 10.4449 6.14424 9.885 5.8546C 9.23274 5.52685 8.50961 5.36697 7.78058 5.38934C 6.67652 5.37484 5.59133 5.67753 4.6529 6.26173C 3.6902 6.84043 2.90263 7.67145 2.37471 8.6656L 2.37471 0L 3.53515e-06 0L 3.53515e-06 19.8126L 2.37471 19.8126L 2.37471 11.244C 2.53364 10.7119 2.77469 10.2082 3.08906 9.75122C 3.3984 9.31864 3.76176 8.92773 4.17023 8.58805C 4.56861 8.26778 5.01074 8.00663 5.48309 7.81261C 5.92931 7.62369 6.40822 7.52488 6.89248 7.52181C 7.3236 7.50081 7.75304 7.58927 8.14111 7.77902C 8.52918 7.96877 8.86336 8.2537 9.11274 8.60745C 9.68234 9.59307 9.94461 10.7275 9.8657 11.8643L 9.8657 19.7932L 12.2404 19.7932L 12.2404 11.3215C 12.2437 10.5337 12.1661 9.7476 12.0087 8.97577C 11.8753 8.31079 11.627 7.67439 11.2751 7.09533L 11.2751 7.09533Z" transform="translate(147.446 193.877)" fill="#183038"/>
</g>
<g id="Vector_7">
<path d="M 12.4312 11.2439L 12.4312 2.95809e-06L 10.0758 2.95809e-06L 10.0758 8.87885C 9.69791 9.90978 9.02652 10.8064 8.14514 11.4572C 7.35367 12.0533 6.39295 12.3794 5.4036 12.3877C 3.47294 12.3877 2.39176 10.9338 2.39176 8.04525L 2.39176 2.95809e-06L 0.0170458 2.95809e-06L 0.0170458 8.51051C -0.090033 10.0749 0.309533 11.6322 1.15613 12.9499C 1.54672 13.4564 2.05622 13.8579 2.63907 14.1184C 3.22192 14.3789 3.85998 14.4903 4.49619 14.4427C 5.67762 14.4625 6.84325 14.1682 7.87485 13.5897C 8.91861 13.0198 9.78167 12.1667 10.3654 11.1276L 10.3654 12.7948C 10.3751 12.9942 10.4246 13.1895 10.5108 13.3693C 10.597 13.5491 10.7183 13.7098 10.8674 13.8417C 11.1954 14.1205 11.6156 14.2658 12.0451 14.2488L 12.4891 14.2488L 13.1263 14.2488L 13.1263 12.1939C 12.6629 12.1293 12.4312 11.8126 12.4312 11.2439Z" transform="translate(173.898 199.499)" fill="#183038"/>
</g>
<g id="Vector_8">
<path d="M 13.4181 10.0226C 13.1338 9.16576 12.7026 8.36536 12.1439 7.65751C 11.6089 6.99156 10.954 6.43258 10.2132 6.0097C 9.40141 5.59114 8.50002 5.37817 7.58752 5.38934C 6.51749 5.36198 5.46318 5.65193 4.55637 6.22295C 3.67717 6.79894 2.93283 7.55956 2.37471 8.45235L 2.37471 0L 1.17838e-06 0L 1.17838e-06 19.8126L 2.10442 19.8126L 2.10442 17.1567C 2.62873 18.0255 3.35815 18.7513 4.22816 19.2698C 5.13907 19.8127 6.18079 20.0943 7.24 20.084C 8.14755 20.09 9.04486 19.8912 9.8657 19.5024C 10.6716 19.1277 11.3939 18.5937 11.9894 17.9322C 12.5984 17.2509 13.0763 16.4621 13.3988 15.6058C 13.7495 14.7108 13.9264 13.7566 13.9201 12.7948C 13.9021 11.8497 13.7326 10.9136 13.4181 10.0226L 13.4181 10.0226ZM 11.082 14.7335C 10.8431 15.3419 10.5037 15.9056 10.0781 16.4007C 9.64723 16.8897 9.1217 17.2854 8.53354 17.5638C 7.93163 17.8565 7.27166 18.009 6.60287 18.0097C 6.14749 18.0052 5.69649 17.9199 5.27071 17.7577C 4.81218 17.5969 4.37714 17.3752 3.97717 17.0986C 3.57896 16.8204 3.22154 16.4876 2.91531 16.1099C 2.63051 15.7388 2.43254 15.3081 2.3361 14.8498L 2.3361 10.7593C 2.54902 10.3073 2.80781 9.87851 3.10837 9.47982C 3.40409 9.0889 3.74791 8.73715 4.13162 8.43296C 4.52067 8.14558 4.94184 7.90486 5.38656 7.71569C 5.84138 7.53519 6.3262 7.44307 6.81525 7.44427C 7.48529 7.43348 8.14789 7.58651 8.74591 7.89015C 9.2977 8.19036 9.78879 8.59142 10.1939 9.07271C 10.613 9.57675 10.9339 10.1555 11.1399 10.7787C 11.3647 11.4003 11.4822 12.056 11.4875 12.7173C 11.4783 13.4088 11.3408 14.0925 11.082 14.7335L 11.082 14.7335Z" transform="translate(201.08 193.877)" fill="#183038"/>
</g>
</g>
</g>
</g>
<defs>

<clipPath id="clip0">
<rect width="250" height="250" fill="white"/>
</clipPath>

</defs>
</svg>

