<svg width="159" height="158" viewBox="0 0 159 158" fill="none" xmlns="http://www.w3.org/2000/svg">
<path d="M27.8652 11.7622L28.1196 11.6253C29.8156 10.6671 44.3164 2.89826 54.7298 19.8219L68.0943 48.0564L76.1503 44.172L62.684 15.7322L62.4636 15.3214C50.3541 -4.68227 31.9356 -1.02034 23.7439 3.77096C4.03647 13.8327 5.8851 32.4332 9.63328 40.8523L35.6329 98.6558L43.7567 94.9423L32.4783 69.737L47.1487 62.8923L58.3932 87.5333C59.1394 89.2446 65.1771 104.406 48.4546 112.996L48.2002 113.133C47.5557 113.526 32.3427 122.425 21.5731 105.09L8.03902 76.924L0 80.8426L13.568 109.214L13.7884 109.625C20.9116 121.26 30.1378 124.837 38.2108 124.837C43.2543 124.831 48.2099 123.504 52.5928 120.987C72.2325 110.823 70.2652 92.3243 66.4831 83.7687L40.1612 26.1532L32.0544 29.935L43.3666 54.6786L28.7472 61.5233L17.791 37.139C17.4858 36.4546 10.6339 20.455 27.8652 11.7622Z" transform="translate(41.6035)" fill="#183038"/>
<path d="M9.22621 6.8449C8.75007 6.54461 8.23688 6.30874 7.69983 6.14333C7.08927 5.93798 6.37695 5.74975 5.56287 5.56152L4.22303 5.20217C3.90235 5.11098 3.59456 4.97871 3.3072 4.8086C3.09503 4.69431 2.91879 4.52243 2.7984 4.31236C2.68291 4.09098 2.62458 3.8438 2.62879 3.59365C2.60704 3.2829 2.66978 2.97204 2.81026 2.69461C2.95073 2.41719 3.1636 2.18371 3.42591 2.01937C4.01908 1.67775 4.69351 1.50615 5.37631 1.52313C6.05366 1.52298 6.72561 1.64465 7.36062 1.88247C7.98602 2.11963 8.56143 2.47378 9.05658 2.92629L10.0064 1.64291C9.39627 1.12664 8.70192 0.721336 7.95423 0.445088C7.1158 0.145001 6.23199 -0.00555117 5.34239 0.000177236C4.71157 -0.00446144 4.08334 0.0819758 3.47679 0.256857C2.93593 0.400014 2.42862 0.650122 1.98432 0.992668C1.55525 1.31139 1.20663 1.72761 0.966719 2.2076C0.702968 2.73772 0.574708 3.32594 0.593599 3.91878C0.581839 4.3421 0.662918 4.76281 0.83104 5.15084C1.00869 5.50184 1.27117 5.802 1.59424 6.02354C2.00524 6.28888 2.45035 6.49615 2.91712 6.63957C3.45984 6.8278 4.10431 6.99891 4.85055 7.18715L6.39391 7.59782C6.76802 7.70633 7.13139 7.84955 7.47934 8.02563C7.73286 8.16354 7.95296 8.35639 8.12383 8.59031C8.27715 8.82295 8.35427 9.09826 8.3443 9.37746C8.35673 9.67978 8.28951 9.97998 8.14949 10.2475C8.00945 10.5151 7.80163 10.7403 7.54719 10.9004C6.89707 11.2884 6.14745 11.473 5.39327 11.4308C4.60617 11.4353 3.82474 11.2962 3.08671 11.0202C2.30237 10.7033 1.56592 10.2771 0.898876 9.75392L0 11.1742C0.736055 11.784 1.58289 12.2432 2.49312 12.526C3.44745 12.832 4.4428 12.9878 5.44415 12.9881C6.71711 13.0581 7.97672 12.6967 9.02267 11.9613C9.45381 11.6452 9.80142 11.2271 10.0351 10.7438C10.2687 10.2604 10.3811 9.72664 10.3626 9.18927C10.3759 8.7198 10.2709 8.25464 10.0572 7.83739C9.86546 7.44256 9.58005 7.10163 9.22621 6.8449Z" transform="translate(0 144.995)" fill="#183038"/>
<path d="M10.9225 1.93449C10.3736 1.33024 9.70285 0.851752 8.95512 0.531308C8.15637 0.167143 7.28757 -0.0140128 6.41115 0.00084542C5.53127 -0.0110968 4.65874 0.163812 3.8502 0.514205C3.08708 0.827438 2.39382 1.29162 1.81127 1.87939C1.22872 2.46715 0.768662 3.16662 0.458208 3.93657C-0.152736 5.54508 -0.152736 7.32469 0.458208 8.9332C0.752701 9.70414 1.19667 10.4081 1.76413 11.0037C2.31925 11.6083 2.99572 12.0868 3.74844 12.4069C4.55743 12.7558 5.42965 12.9307 6.30939 12.9203C7.49779 12.9286 8.66749 12.6217 9.70136 12.0304C10.1559 11.7565 10.5723 11.4227 10.9395 11.038C11.2869 10.6575 11.5731 10.2245 11.7874 9.75463L9.97271 9.25838C9.85535 9.58391 9.66359 9.87697 9.41305 10.114C9.17122 10.3729 8.8909 10.5924 8.58203 10.7642C8.25723 10.9519 7.90941 11.0957 7.54748 11.192C7.18887 11.2946 6.81784 11.3465 6.44508 11.346C5.91541 11.3482 5.39065 11.2435 4.90172 11.038C4.4243 10.8263 3.98789 10.5308 3.61277 10.1652C3.22338 9.78834 2.90704 9.34153 2.67996 8.84767C2.43814 8.3075 2.29453 7.72789 2.25596 7.13647H12.5337C12.5337 7.13647 12.5337 6.94825 12.5337 6.79424V6.31511C12.5402 5.49543 12.3904 4.68214 12.0928 3.91945C11.8364 3.18632 11.4387 2.51169 10.9225 1.93449ZM2.22205 5.63063C2.26252 5.06697 2.40628 4.51577 2.64605 4.00502C2.85987 3.52218 3.16523 3.0862 3.54492 2.72163C3.91421 2.35738 4.35263 2.07217 4.83388 1.88315C5.84026 1.47304 6.9651 1.47304 7.97147 1.88315C8.45385 2.07215 8.89679 2.35076 9.27742 2.70452C9.65173 3.07755 9.96129 3.51138 10.1932 3.9879C10.4553 4.52162 10.6055 5.10416 10.6342 5.69908L2.22205 5.63063Z" transform="translate(21.4033 144.994)" fill="#183038"/>
<path d="M10.8715 10.1739V5.04031C10.9128 4.35884 10.8119 3.67618 10.5752 3.03653C10.3387 2.39687 9.97148 1.81448 9.49764 1.32706C8.45315 0.399441 7.08767 -0.0741448 5.69863 0.00945053C3.95335 0.0754144 2.26854 0.671869 0.86504 1.72063L1.5604 3.08957C2.69047 2.20191 4.06463 1.68796 5.49511 1.61796C5.9386 1.58648 6.38369 1.64943 6.80151 1.80273C7.21932 1.95601 7.60052 2.19623 7.92038 2.50777C8.21711 2.82768 8.44668 3.2048 8.59532 3.61648C8.74396 4.02816 8.80859 4.46592 8.78531 4.90343V5.91302C8.23528 5.70676 7.66755 5.5521 7.08935 5.45101C6.48405 5.34879 5.8714 5.29727 5.25767 5.297C4.54736 5.28749 3.8393 5.37968 3.15464 5.57079C2.55127 5.74818 1.97905 6.01954 1.45864 6.37505C1.0172 6.68756 0.651851 7.09713 0.390163 7.57287C0.130344 8.05593 -0.00386114 8.59756 8.45555e-05 9.14716C-0.00232461 9.66847 0.103588 10.1845 0.310993 10.6619C0.518398 11.1395 0.822688 11.5677 1.20424 11.9193C1.58741 12.2824 2.03664 12.567 2.52711 12.7578C3.06988 12.9592 3.64485 13.0578 4.22311 13.0486C5.16443 13.0577 6.09635 12.8591 6.95367 12.4668C7.77156 12.0587 8.47223 11.446 8.98884 10.6873V11.577C9.03663 11.9139 9.19133 12.2261 9.42983 12.4668C9.55958 12.5941 9.71374 12.6933 9.88293 12.758C10.0522 12.8227 10.2327 12.8518 10.4135 12.8433H10.8715C11.0522 12.855 11.2334 12.855 11.4142 12.8433V11.0295C11.0523 10.961 10.8715 10.6758 10.8715 10.1739ZM8.78531 8.97601C8.7737 9.15307 8.72722 9.3259 8.64859 9.48461C8.56996 9.64323 8.46078 9.78446 8.32742 9.90009C7.95131 10.3985 7.44679 10.7833 6.86887 11.0124C6.21118 11.3018 5.50027 11.4475 4.78279 11.4401C4.07174 11.454 3.38155 11.1975 2.84936 10.7214C2.61497 10.4973 2.42503 10.2301 2.28967 9.93434C2.15246 9.62187 2.08307 9.28353 2.08616 8.94185C2.0892 8.59507 2.18147 8.25506 2.3539 7.95509C2.52634 7.65512 2.77303 7.40549 3.06984 7.23064C3.83297 6.75736 4.71887 6.52496 5.61382 6.56327C6.69862 6.56324 7.774 6.76633 8.78531 7.16219V8.97601Z" transform="translate(44.7402 144.951)" fill="#183038"/>
<path d="M17.8758 1.49731C17.5968 1.0336 17.1982 0.655069 16.7226 0.40215C16.1958 0.137914 15.6147 0.0030497 15.0265 0.00857217C14.0287 -0.00790508 13.048 0.272071 12.2067 0.813652C11.3653 1.35523 10.7004 2.1345 10.2947 3.05448C10.1822 2.21624 9.78692 1.44273 9.17534 0.864163C8.83731 0.561065 8.44259 0.329232 8.01443 0.182299C7.58628 0.0353652 7.13333 -0.0237026 6.68222 0.00857217C5.71977 -0.00610623 4.77294 0.254977 3.95167 0.761497C3.12349 1.29072 2.44561 2.02774 1.98432 2.90047V0.213919H0V12.7227H2.08608V5.17635C2.32697 4.25478 2.8348 3.42664 3.54463 2.79781C4.16417 2.22108 4.97435 1.89776 5.81727 1.89087C6.17859 1.86826 6.53948 1.9417 6.86387 2.10385C7.18826 2.266 7.46482 2.51117 7.66591 2.81491C8.14781 3.70358 8.36567 4.71356 8.29342 5.72392V12.7227H10.3795V5.21056C10.6258 4.29449 11.1189 3.46522 11.8041 2.81491C12.4297 2.22398 13.2537 1.89385 14.1107 1.89087C14.4752 1.87549 14.8376 1.9538 15.1639 2.11841C15.4903 2.28303 15.7698 2.52857 15.9763 2.83202C16.4523 3.71671 16.6699 4.71948 16.6038 5.72392V12.7227H18.6899V5.24478C18.6913 4.55027 18.6289 3.85713 18.5033 3.17426C18.3906 2.58322 18.1783 2.01604 17.8758 1.49731Z" transform="translate(68.3311 144.986)" fill="#183038"/>
<path d="M9.90463 6.26293C9.59533 5.8001 9.17534 5.42342 8.68349 5.16776C8.11051 4.87846 7.47528 4.73734 6.83486 4.75708C5.865 4.74428 4.91171 5.01146 4.08735 5.52713C3.24166 6.03793 2.54982 6.77146 2.08607 7.64898V0H0V17.4883H2.08607V9.92489C2.22568 9.45522 2.43743 9.01061 2.71359 8.60724C2.98533 8.22541 3.30452 7.88036 3.66334 7.58053C4.0133 7.29783 4.40169 7.06732 4.81663 6.89606C5.20861 6.72931 5.62931 6.64209 6.05471 6.63938C6.43343 6.62084 6.81067 6.69892 7.15157 6.86641C7.49247 7.0339 7.78603 7.2854 8.0051 7.59765C8.50547 8.46764 8.73586 9.46899 8.66654 10.4724V17.4711H10.7526V9.9933C10.7555 9.29792 10.6873 8.60405 10.5491 7.92276C10.4319 7.3358 10.2138 6.77406 9.90463 6.26293Z" transform="translate(99.6562 140.238)" fill="#183038"/>
<path d="M10.9202 9.9248V0H8.8511V7.83721C8.51915 8.7472 7.92936 9.53863 7.15511 10.1131C6.45984 10.6392 5.6159 10.9271 4.7468 10.9344C3.05081 10.9344 2.10105 9.65108 2.10105 7.10141V0H0.0149726V7.51209C-0.079091 8.89295 0.271908 10.2675 1.0156 11.4307C1.35872 11.8777 1.80629 12.2321 2.3183 12.4621C2.8303 12.692 3.39081 12.7903 3.94969 12.7483C4.98752 12.7658 6.01147 12.506 6.91768 11.9954C7.83457 11.4924 8.59273 10.7393 9.1055 9.82215V11.2938C9.11403 11.4698 9.15751 11.6422 9.23323 11.8009C9.30895 11.9596 9.41551 12.1014 9.54649 12.2178C9.83462 12.4639 10.2037 12.5922 10.581 12.5772H10.9711H11.5308V10.7634C11.1237 10.7063 10.9202 10.4268 10.9202 9.9248Z" transform="translate(122.894 145.201)" fill="#183038"/>
<path d="M11.7872 8.84678C11.5374 8.09047 11.1586 7.38397 10.6678 6.75916C10.1979 6.17134 9.62256 5.67793 8.97181 5.30466C8.25869 4.93521 7.46686 4.74722 6.66527 4.75708C5.7253 4.73293 4.79914 4.98887 4.00255 5.4929C3.23022 6.00131 2.57635 6.6727 2.08607 7.46075V0H0V17.4883H1.84863V15.1439C2.30921 15.9108 2.94997 16.5515 3.71423 17.0091C4.51443 17.4883 5.42953 17.7369 6.35999 17.7278C7.15723 17.7331 7.94547 17.5576 8.66654 17.2144C9.37449 16.8837 10.009 16.4124 10.5321 15.8285C11.0671 15.2271 11.4869 14.5308 11.7702 13.775C12.0783 12.985 12.2337 12.1427 12.2281 11.2938C12.2123 10.4595 12.0634 9.63326 11.7872 8.84678ZM9.735 13.005C9.52514 13.542 9.227 14.0396 8.85313 14.4766C8.47463 14.9083 8.01297 15.2575 7.4963 15.5033C6.96756 15.7616 6.3878 15.8962 5.8003 15.8969C5.40027 15.8929 5.00409 15.8176 4.63006 15.6744C4.22727 15.5325 3.84511 15.3368 3.49375 15.0927C3.14394 14.8471 2.82997 14.5533 2.56096 14.2199C2.31078 13.8924 2.13687 13.5122 2.05215 13.1077V9.49706C2.23919 9.09808 2.46653 8.7196 2.73055 8.36768C2.99033 8.02262 3.29236 7.71214 3.62943 7.44363C3.97119 7.18997 4.34117 6.97749 4.73183 6.81051C5.13137 6.65119 5.55726 6.56988 5.98687 6.57094C6.57547 6.56141 7.15753 6.69649 7.68286 6.96451C8.16758 7.2295 8.59898 7.58351 8.95485 8.00833C9.32301 8.45324 9.60491 8.96409 9.78587 9.51418C9.98334 10.0629 10.0866 10.6416 10.0912 11.2254C10.0831 11.8357 9.96235 12.4392 9.735 13.005Z" transform="translate(146.771 140.238)" fill="#183038"/>
</svg>
