<svg width="145" height="85" viewBox="0 0 145 85" fill="none" xmlns="http://www.w3.org/2000/svg">
<path d="M137.359 27.9879C134.939 29.3279 128.589 36.3179 126.519 38.0579C122.169 41.7179 122.519 41.5279 118.409 45.2879C109.489 53.4479 102.259 59.3779 90.2389 62.5379C80.8789 65.0079 67.9789 63.7979 62.6189 56.0879C59.7133 51.8588 58.3053 46.7795 58.6189 41.6579C58.9089 36.5379 60.7689 29.3679 64.8989 25.6579C68.6189 22.2579 74.1689 24.2779 73.8989 29.3279C73.7433 30.8508 73.4827 32.361 73.1189 33.8479C74.0589 34.3379 76.1189 29.5479 76.2389 28.8479C77.5889 23.2879 74.7589 18.2179 68.8789 17.5779C58.8989 16.4479 52.3589 24.7779 49.6489 33.4479C48.8103 36.6101 48.3372 39.858 48.2389 43.1279C48.0289 45.9979 47.6389 49.9879 44.4889 51.1279C42.6389 51.8179 40.7589 52.4879 38.9189 53.2079C37.3889 53.8079 35.8389 54.7379 34.1189 54.4979C32.9289 54.3379 32.4889 53.4379 31.7589 52.5779C31.2438 52.0402 30.6889 51.5421 30.0989 51.0879C23.3589 45.2779 14.3589 38.4479 12.4289 29.1879C10.4289 19.6479 20.3089 10.0979 29.1389 8.53794C30.1884 8.31612 31.2728 8.31722 32.3219 8.54116C33.371 8.7651 34.3614 9.2069 35.2289 9.83794C37.6389 11.7679 38.1589 15.3579 37.2989 18.3179C36.4389 21.2779 34.4489 23.7679 32.5089 26.1679C37.7689 24.4479 41.0289 18.4479 40.2589 12.9579C39.4889 7.46794 35.1689 2.81794 29.9389 0.957939C27.2885 0.128749 24.4999 -0.16651 21.7346 0.089249C18.9693 0.345008 16.2822 1.14671 13.8289 2.44794C9.00315 5.00437 5.1049 9.01539 2.6871 13.912C0.269294 18.8087 -0.545302 24.3423 0.358862 29.7279C1.59886 36.5579 5.65886 42.6079 10.6489 47.4479C15.6389 52.2879 21.5589 56.0079 27.4289 59.7179L16.3589 65.9779C12.2089 68.3279 7.50886 71.1079 6.26886 76.0979C5.93574 77.3214 5.92748 78.6105 6.2449 79.8382C6.56232 81.0658 7.19445 82.1893 8.07886 83.0979C8.9799 83.8315 10.0299 84.36 11.1559 84.6467C12.2818 84.9333 13.4567 84.9713 14.5989 84.7579C19.7989 83.9979 24.5989 81.0979 28.5989 77.8179C31.7489 75.2479 33.5989 71.7279 34.8289 67.9179C35.4907 66.1452 35.9829 64.3137 36.2989 62.4479C36.4889 60.8879 36.0089 58.7279 37.0389 57.3779C38.0689 56.0279 40.5089 55.1279 42.0389 54.4879C45.0989 53.1879 46.0389 52.2879 47.5689 54.9879C48.6289 56.8679 48.7689 59.8479 49.5689 61.9279C57.9789 84.3179 83.8189 78.3079 99.5689 67.7779C103.552 65.2043 107.366 62.3785 110.989 59.3179C114.679 56.0979 117.559 52.0879 121.219 48.8279C123.427 46.8676 125.534 44.7949 127.529 42.6179C128.919 41.0879 130.249 39.4879 131.529 37.8079C133.529 35.1879 136.999 31.2279 137.529 27.9879H137.359ZM29.4289 65.3179C29.0167 67.4522 28.0473 69.4395 26.6189 71.0779C24.3293 73.8815 21.8287 76.5058 19.1389 78.9279C17.3589 80.5479 12.1389 82.9279 10.2089 80.3679C7.30886 76.4879 16.4289 68.2079 19.0289 66.7079C21.3989 65.3379 23.9289 63.5279 26.5789 62.7079C27.3394 62.4624 28.1534 62.4347 28.9289 62.6279C29.3492 63.4584 29.5227 64.3919 29.4289 65.3179V65.3179Z" fill="white"/>
<path d="M0.120001 0C0.0705007 0.0292138 0.0292138 0.070495 0 0.119995C0 0.119995 0.0700002 0.209999 0.0900002 0.209999" transform="translate(8.23877 77.3479)" fill="white"/>
<path d="M0 0.00444444C0 0.00444444 0 -0.00555556 0 0.00444444V0.00444444Z" transform="translate(16.459 54.3835)" fill="white"/>
<path d="M0.0800018 0H0C0.0257215 0.0100407 0.0542803 0.0100407 0.0800018 0V0Z" transform="translate(34.479 68.2479)" fill="white"/>
<path d="M2.78625 0C-0.923749 0 -0.933749 5.77 2.78625 5.77C6.50625 5.77 6.49625 0 2.78625 0Z" transform="translate(139.232 19.3279)" fill="white"/>
</svg>
