<svg width="260" height="110" viewBox="0 0 260 110" fill="none" xmlns="http://www.w3.org/2000/svg">
<rect width="260" height="110" rx="15" fill="#183038"/>
<path d="M13.3241 5.49555L13.4348 5.42729C14.2096 4.99043 21.1553 1.33171 26.1086 9.24983L32.4454 22.3557L36.278 20.54L29.8996 7.33856L29.7889 7.14743C24.0193 -2.21779 15.2473 -0.456691 11.3594 1.76857C1.97855 6.45118 2.85022 15.1065 4.63506 19.0383L17.0875 45.9462L20.8924 44.1988L15.4963 32.4718L22.4143 29.3045L27.7689 40.7721C28.1286 41.5639 31.0065 48.622 23.037 52.622H22.9263C22.608 52.7995 15.3718 56.936 10.2386 48.8677L3.83258 35.7619L-4.22242e-07 37.5912L6.46142 50.8063L6.5721 50.9838C9.94809 56.4445 14.3479 58.0555 18.1805 58.0555C20.6068 58.0637 22.9925 57.4422 25.0985 56.2534C34.4932 51.6118 33.5108 42.9701 31.726 39.052L19.2736 12.1986L15.4133 13.9597L20.6572 25.4956L13.7392 28.6629L8.52298 17.3045C8.03313 16.2206 7.76895 15.0507 7.74612 13.8642C7.72329 12.6776 7.94228 11.4986 8.39008 10.3972C8.83788 9.29579 9.50538 8.29435 10.3529 7.45234C11.2005 6.61033 12.2109 5.9449 13.3241 5.49555Z" transform="translate(28.6855 26.2773)" fill="#00A699"/>
<path d="M10.7091 8.28804C10.1194 7.9411 9.487 7.6704 8.82738 7.48258C8.09407 7.25049 7.23624 7.01841 6.26772 6.78633C5.58975 6.63616 5.02247 6.48598 4.55205 6.34946C4.13693 6.23318 3.73744 6.06817 3.36215 5.858C3.08683 5.70627 2.85755 5.48476 2.69802 5.21636C2.54783 4.91545 2.47648 4.5822 2.49048 4.24707C2.47993 3.81108 2.5798 3.37938 2.78104 2.99109C2.97577 2.64205 3.2506 2.34283 3.58353 2.11737C3.94186 1.8811 4.34016 1.71003 4.75959 1.61225C5.23712 1.51174 5.7241 1.4614 6.21237 1.46207C7.07036 1.45698 7.92263 1.60021 8.73053 1.88528C9.50449 2.15769 10.205 2.60134 10.7783 3.18222L11.7329 2.03546C11.0899 1.37927 10.3047 0.875207 9.43616 0.561048C8.42714 0.172294 7.35076 -0.0178556 6.26772 0.00131885C5.52912 -0.00283798 4.79348 0.093635 4.08162 0.288008C3.43309 0.455063 2.82269 0.742308 2.28294 1.13443C1.77419 1.48898 1.3571 1.95664 1.06537 2.49962C0.751063 3.11257 0.59427 3.79236 0.608786 4.47915C0.589824 4.98752 0.694179 5.49301 0.913175 5.95356C1.13445 6.39928 1.48005 6.77343 1.90937 7.03206C2.40653 7.3388 2.9412 7.58194 3.50051 7.75561C4.13697 7.96039 4.88411 8.16517 5.76962 8.38361C6.65512 8.60204 7.15322 8.7249 7.74817 8.88872C8.23088 9.01862 8.69557 9.20661 9.13177 9.44845C9.47178 9.61917 9.7658 9.86716 9.9896 10.172C10.1941 10.4844 10.2956 10.8516 10.2802 11.2232C10.2976 11.6332 10.2059 12.0405 10.0141 12.4046C9.8223 12.7687 9.53717 13.0768 9.18711 13.2983C8.31304 13.8323 7.2943 14.0895 6.26772 14.0355C5.3207 14.0334 4.38234 13.8574 3.50051 13.5167C2.55375 13.1404 1.67524 12.6148 0.899341 11.9604L-1.47785e-06 13.3256C0.840979 14.0736 1.83046 14.6408 2.90556 14.9911C4.01332 15.3712 5.1779 15.5651 6.35073 15.5645C7.8803 15.6451 9.39374 15.2226 10.6537 14.3631C11.1699 13.9858 11.5856 13.4906 11.8651 12.9199C12.1447 12.3493 12.2797 11.7202 12.2587 11.0867C12.2914 10.5395 12.1689 9.99417 11.905 9.51187C11.641 9.02957 11.2461 8.62941 10.7644 8.3563L10.7091 8.28804Z" transform="translate(73.7217 48.4277)" fill="#00A699"/>
<path d="M12.951 2.29401C12.2904 1.57671 11.4843 1.00459 10.585 0.614818C9.62773 0.209183 8.59678 6.48961e-07 7.55494 6.48961e-07C6.5131 6.48961e-07 5.48215 0.209183 4.52485 0.614818C3.62287 1.00779 2.80919 1.57397 2.13122 2.28035C1.45802 2.98477 0.927366 3.80956 0.567752 4.7104C0.181916 5.65591 -0.0108649 6.6673 0.00047528 7.68652C-0.0105362 8.71456 0.182167 9.73482 0.567752 10.6899C0.929819 11.609 1.46502 12.4521 2.14506 13.1746C2.82337 13.8875 3.63653 14.4626 4.53869 14.8674C5.49734 15.284 6.53518 15.4934 7.5826 15.4818C8.29727 15.482 9.00891 15.3902 9.69951 15.2087C10.3535 15.0423 10.9785 14.78 11.5535 14.4306C12.1063 14.1121 12.6095 13.7167 13.0478 13.2565C13.4585 12.814 13.7906 12.3063 14.0302 11.7548L12.3422 11.2906C12.1621 11.7036 11.9038 12.0789 11.5812 12.3964C11.2616 12.7307 10.8932 13.016 10.4882 13.2429C10.0514 13.4801 9.5867 13.6635 9.10457 13.7889C7.9386 14.1235 6.69083 14.0463 5.57639 13.5705C4.93038 13.2957 4.3434 12.9018 3.84689 12.4101C3.34819 11.8968 2.94536 11.3006 2.65699 10.649C2.31813 9.94128 2.11635 9.1773 2.06204 8.39642H15.0125C15.0312 8.29256 15.0312 8.18628 15.0125 8.08242V7.61826C15.0181 6.61981 14.8351 5.62908 14.4729 4.69675C14.117 3.81165 13.6013 2.99757 12.951 2.29401ZM2.03437 6.93566C2.08254 6.1819 2.26521 5.44245 2.57397 4.75135C2.85068 4.10558 3.25522 3.52078 3.76387 3.03121C4.26002 2.54931 4.84778 2.16887 5.49337 1.91175C6.16103 1.66636 6.87042 1.55047 7.5826 1.57045C8.28443 1.56486 8.98049 1.69582 9.63099 1.95584C10.2815 2.21585 10.8737 2.59983 11.3737 3.08582C11.8746 3.58248 12.2863 4.15953 12.5912 4.79231C12.9188 5.48322 13.1113 6.22893 13.1585 6.99027L2.03437 6.93566Z" transform="translate(93.7285 48.4287)" fill="#00A699"/>
<path d="M12.8539 12.679V5.93491C12.8989 5.1385 12.7785 4.34142 12.5001 3.59255C12.2217 2.84369 11.7913 2.15882 11.2351 1.57995C10.6316 1.03671 9.92415 0.617974 9.15431 0.348364C8.38447 0.0787531 7.56777 -0.0362963 6.75222 0.00997401C4.69962 0.0751547 2.71592 0.756163 1.06561 1.9622L1.75742 3.24548C2.52433 2.69381 3.35589 2.23544 4.23406 1.88029C4.99339 1.59003 5.79958 1.43741 6.61386 1.42977C7.19038 1.39698 7.7675 1.48325 8.30831 1.68306C8.84912 1.88287 9.34173 2.19183 9.75464 2.59019C10.5386 3.44773 10.9465 4.57666 10.8892 5.73013V7.09533C10.2055 6.81868 9.48984 6.6261 8.75844 6.52194C7.98188 6.38667 7.19488 6.31815 6.40632 6.31717C5.54183 6.30878 4.68036 6.41905 3.84666 6.64481C3.13258 6.83682 2.45822 7.15103 1.85428 7.57314C1.28956 7.94205 0.816586 8.43206 0.470676 9.00659C0.161949 9.56329 0.000167696 10.1877 0.000246256 10.8223C-0.00651323 11.4482 0.125719 12.0679 0.387653 12.638C0.63255 13.1951 0.990407 13.6969 1.43919 14.1124C1.90448 14.5397 2.4496 14.8736 3.04416 15.0954C3.67747 15.3456 4.35439 15.4708 5.03655 15.464C6.21105 15.471 7.37285 15.224 8.44021 14.7404C9.4798 14.2786 10.3876 13.5705 11.0829 12.679V13.853C11.0777 14.0471 11.1145 14.24 11.1908 14.4189C11.2672 14.5978 11.3813 14.7586 11.5256 14.8906C11.859 15.1508 12.2773 15.2819 12.7017 15.2592C12.9571 15.2513 13.2116 15.2239 13.4627 15.1773V13.4844C13.103 13.4844 12.8539 13.2114 12.8539 12.679ZM10.8892 10.7813C10.8812 10.9751 10.8341 11.1654 10.7508 11.3411C10.6609 11.5513 10.5292 11.7417 10.3634 11.9008C9.86092 12.5766 9.18186 13.1051 8.39871 13.4298C7.52727 13.8103 6.58445 14.0057 5.6315 14.0032C5.1587 13.9951 4.69076 13.9074 4.2479 13.7438C3.82713 13.5811 3.44196 13.3401 3.11335 13.0339C2.78638 12.7467 2.52671 12.3926 2.35236 11.9964C2.15952 11.5669 2.06505 11.1008 2.07565 10.6312C2.06764 10.1913 2.17254 9.75665 2.38059 9.36757C2.58864 8.97849 2.89307 8.64767 3.26555 8.40591C4.28848 7.79235 5.47329 7.49295 6.6692 7.54584C7.39825 7.54566 8.12564 7.61423 8.84146 7.75062C9.53894 7.88549 10.2239 8.07728 10.8892 8.324V10.7813Z" transform="translate(116.198 48.4189)" fill="#00A699"/>
<path d="M21.4873 1.81784C21.1562 1.25037 20.6789 0.779382 20.1037 0.452648C19.4263 0.134158 18.6816 -0.0202873 17.9315 0.00213438C16.688 0.0222766 15.4766 0.394561 14.4414 1.07467C13.4063 1.75478 12.591 2.71407 12.0927 3.83833C11.9642 2.79805 11.4754 1.83351 10.7091 1.10794C9.86592 0.380603 8.76999 0.00383939 7.65132 0.0567433C6.46445 0.0448816 5.30018 0.377172 4.30301 1.01238C3.26645 1.70031 2.42762 2.64083 1.86786 3.74276V0.261522H4.22242e-06V15.2786H1.97855V6.13185C2.29897 4.92715 2.9614 3.83778 3.88792 2.99191C4.72092 2.23451 5.81294 1.81522 6.94568 1.81784C7.43121 1.78429 7.91712 1.87769 8.35438 2.08862C8.79164 2.29955 9.16479 2.62054 9.43616 3.01921C10.0769 4.20852 10.3601 5.55364 10.2525 6.89636V15.2786H12.231V6.13185C12.399 5.52087 12.6553 4.93695 12.992 4.39806C13.2976 3.88867 13.6802 3.42831 14.1266 3.03286C14.5352 2.66402 15.0027 2.36421 15.5102 2.14549C16.0332 1.93665 16.5924 1.83001 17.1567 1.83149C17.6471 1.79837 18.1376 1.89473 18.5777 2.11068C19.0179 2.32662 19.3918 2.65435 19.661 3.06017C20.3062 4.23868 20.5988 5.57376 20.505 6.91001V15.2786H22.4697V6.50045C22.4776 5.61159 22.3942 4.72422 22.2206 3.85198C22.1073 3.13463 21.8586 2.44465 21.4873 1.81784Z" transform="translate(139 48.3711)" fill="#00A699"/>
<path d="M11.6223 7.52221C11.2506 6.95346 10.742 6.48442 10.1418 6.15702C9.45352 5.82579 8.69335 5.6664 7.92804 5.69285C6.70593 5.69094 5.5077 6.02671 4.46904 6.66214C3.40161 7.33063 2.54026 8.27495 1.97855 9.39253V-5.2078e-07H-2.53345e-06V20.9557H1.97855V11.8089C2.14547 11.2033 2.41694 10.6307 2.78104 10.1161C3.12915 9.60143 3.55357 9.14124 4.04011 8.75089C4.50859 8.37649 5.03084 8.07284 5.58975 7.84986C6.12119 7.63521 6.68967 7.52395 7.26391 7.52221C7.77001 7.49559 8.27461 7.59699 8.72984 7.8168C9.18508 8.03661 9.57585 8.36754 9.86508 8.77819C10.5382 9.93741 10.8465 11.2681 10.7506 12.6007V20.9557H12.7291V12.1775C12.7391 11.2969 12.651 10.4179 12.4663 9.55635C12.3179 8.83173 12.0315 8.14147 11.6223 7.52221Z" transform="translate(171.335 42.6953)" fill="#00A699"/>
<path d="M12.9418 12.4642V0H10.9633V9.39253C10.7462 9.99859 10.4384 10.5692 10.0501 11.0854C9.69227 11.5967 9.26383 12.0562 8.7772 12.4506C8.30336 12.8071 7.77579 13.0881 7.21373 13.2833C6.66221 13.4733 6.08222 13.5702 5.49808 13.57C3.1644 13.57 1.99294 11.8772 1.98372 8.4915V0H0.0190058V8.76453C-0.0974261 10.4597 0.323232 12.1486 1.22273 13.5973C1.65046 14.1457 2.20917 14.5811 2.84895 14.8646C3.48874 15.1481 4.18971 15.2708 4.88929 15.2219C6.16347 15.2225 7.41478 14.8879 8.51432 14.2526C9.65038 13.6083 10.5804 12.6623 11.1985 11.5222V13.2424C11.1754 13.6936 11.3346 14.1355 11.6412 14.471C11.7833 14.6252 11.9563 14.7485 12.1492 14.8331C12.3422 14.9177 12.5508 14.9618 12.762 14.9625H13.0802C13.2643 14.9789 13.4495 14.9789 13.6336 14.9625V13.2697C13.177 13.2697 12.9418 12.9966 12.9418 12.4642Z" transform="translate(193.716 48.6348)" fill="#00A699"/>
<path d="M14.1127 10.6485C13.8029 9.74243 13.3346 8.8969 12.7291 8.1502C12.1512 7.41759 11.4196 6.81684 10.5845 6.3891C9.69865 5.94255 8.71516 5.71753 7.7205 5.73381C6.54812 5.70362 5.39437 6.02751 4.41369 6.66214C3.43521 7.30687 2.6016 8.14332 1.96471 9.11949V-5.2078e-07H0V20.9557H1.78484V18.0342C2.36276 18.985 3.17714 19.7744 4.1508 20.3277C5.14469 20.9171 6.28425 21.2242 7.44378 21.2151C8.40046 21.2111 9.34475 21.0014 10.211 20.6008C11.0734 20.1955 11.8485 19.63 12.4939 18.9352C13.1438 18.2133 13.6548 17.3806 14.002 16.4779C14.3701 15.5278 14.5577 14.5189 14.5555 13.5018C14.5677 12.5331 14.4181 11.5691 14.1127 10.6485ZM12.1618 15.727C11.8925 16.4271 11.499 17.0743 10.9996 17.6383C10.5168 18.2149 9.91248 18.6808 9.22862 19.0035C8.51908 19.3483 7.73652 19.5215 6.94568 19.5086C6.40729 19.5015 5.874 19.4046 5.36838 19.2219C4.82217 19.0345 4.30522 18.7726 3.83258 18.4438C3.36078 18.1257 2.94483 17.7338 2.60118 17.2833C2.27865 16.8574 2.06505 16.361 1.97854 15.8362V11.1946C2.21893 10.7102 2.51115 10.2525 2.85022 9.82939C3.19295 9.38423 3.59294 8.98497 4.04011 8.64167C4.48233 8.3017 4.97154 8.02587 5.4929 7.82255C6.03128 7.61812 6.60405 7.51621 7.18089 7.52221C7.94478 7.5129 8.69958 7.68621 9.38082 8.02734C10.0412 8.36207 10.625 8.82667 11.0965 9.39253C11.5726 9.97089 11.9425 10.627 12.1895 11.3311C12.4557 12.0578 12.5915 12.8246 12.5908 13.5973C12.581 14.3271 12.4356 15.049 12.1618 15.727Z" transform="translate(216.758 42.6953)" fill="#00A699"/>
</svg>
