<svg width="259" height="109" viewBox="0 0 259 109" fill="none" xmlns="http://www.w3.org/2000/svg">
<rect width="259" height="109" rx="15" fill="#00A699"/>
<path d="M13.2141 5.40963H13.3244C14.1098 4.96372 21.0131 1.35586 25.946 9.17964L32.2568 22.1923L36.0874 20.4086L29.7215 7.24734L29.6113 7.05817C23.8792 -2.15741 15.157 -0.468342 11.2575 1.73421C1.91529 6.36903 2.75582 14.936 4.57466 18.8276L16.8932 45.4609L20.7513 43.7584L15.3775 32.1375L22.3359 29.0026L27.6684 40.3532C28.0129 41.1369 30.8927 48.1229 22.956 52.0821L22.832 52.1497C22.5288 52.3253 15.3086 56.4196 10.1965 48.4337L3.81681 35.4616L0 37.2723L6.43483 50.3525L6.54507 50.5417C9.92094 55.9467 14.2889 57.5277 18.1195 57.5277C20.5341 57.5368 22.9092 56.9265 25.009 55.7575C34.3099 51.0687 33.3867 42.5152 31.5955 38.6371L19.0427 12.0578L15.157 13.8009L20.5171 25.2191L13.6275 28.381L8.4328 17.1115C7.94474 16.0378 7.68146 14.8788 7.65856 13.7034C7.63566 12.528 7.85362 11.3601 8.29951 10.2688C8.74539 9.17754 9.41014 8.18515 10.2543 7.35047C11.0986 6.5158 12.105 5.85581 13.2141 5.40963Z" transform="translate(28.5752 26.0391)" fill="white"/>
<path d="M10.6512 8.20344C10.0776 7.86202 9.46171 7.59409 8.81862 7.4062C8.07454 7.17649 7.23402 6.94677 6.26949 6.73057C5.59431 6.56842 5.01559 6.41978 4.5471 6.28466C4.15228 6.16663 3.77303 6.00335 3.41721 5.7982C3.1367 5.65646 2.90623 5.43515 2.75582 5.16311C2.60625 4.86528 2.53519 4.53543 2.54913 4.20372C2.53862 3.77218 2.63808 3.34489 2.8385 2.96056C3.02845 2.61232 3.30292 2.31531 3.63768 2.09576C3.99192 1.85723 4.3895 1.68751 4.8089 1.59579C5.25728 1.50093 5.71435 1.45113 6.17303 1.44715C7.02299 1.44229 7.86719 1.58408 8.66705 1.86604C9.4396 2.13213 10.138 2.57174 10.7064 3.14974L11.6709 2.01468C11.0281 1.36805 10.2468 0.869577 9.38356 0.555322C8.37869 0.170537 7.30674 -0.0176751 6.22815 0.00130364C5.48806 -0.00285049 4.75089 0.0926299 4.03727 0.285069C3.39254 0.453439 2.7852 0.737494 2.24599 1.12285C1.74366 1.47847 1.32925 1.94027 1.03343 2.47411C0.739939 3.10424 0.612036 3.79642 0.661396 4.48748C0.649066 4.99012 0.752694 5.48899 0.964538 5.94684C1.18203 6.34783 1.50571 6.68392 1.90152 6.91975C2.3928 7.22146 2.92046 7.46203 3.47233 7.63592C4.10617 7.8386 4.85024 8.0548 5.7321 8.25749C6.61396 8.46018 7.11001 8.59531 7.71629 8.75746C8.1954 8.89067 8.65763 9.07652 9.0942 9.31148C9.43028 9.48413 9.72231 9.72893 9.94851 10.0276C10.1521 10.3369 10.2532 10.7003 10.2379 11.0681C10.2525 11.4735 10.1599 11.8756 9.96919 12.2355C9.77845 12.5954 9.49601 12.9008 9.14932 13.122C8.27713 13.6466 7.26385 13.9009 6.24193 13.8517C5.29895 13.848 4.36475 13.674 3.48611 13.3382C2.54527 12.9618 1.67099 12.4419 0.895638 11.7978L6.30757e-07 13.1491C0.841666 13.8838 1.82583 14.4445 2.89361 14.7976C4.0013 15.1748 5.1658 15.3667 6.33838 15.3651C7.86096 15.4388 9.36622 15.0211 10.6237 14.176C11.1361 13.8019 11.548 13.3112 11.8241 12.7463C12.1001 12.1813 12.232 11.559 12.2083 10.933C12.226 10.3833 12.0978 9.83852 11.8362 9.35201C11.559 8.86769 11.1483 8.46966 10.6512 8.20344Z" transform="translate(73.3848 47.9453)" fill="white"/>
<path d="M12.8708 2.27065C12.1847 1.54375 11.3506 0.96612 10.4226 0.575087C9.49459 0.184054 8.49321 -0.0116805 7.48322 0.000537481C6.44926 -0.00840789 5.42522 0.198888 4.47938 0.608605C3.57691 0.997271 2.76201 1.55759 2.08182 2.25714C1.41139 2.95437 0.882917 3.77074 0.524782 4.66238C0.161387 5.60286 -0.0163061 6.60254 0.00117518 7.60812C-0.00461158 8.62523 0.187116 9.63411 0.566118 10.5809C0.926696 11.4906 1.45969 12.325 2.13693 13.0402C2.81483 13.7492 3.62986 14.3188 4.5345 14.7157C5.48392 15.1294 6.51331 15.3368 7.55212 15.3238C8.26384 15.324 8.97255 15.2331 9.66032 15.0536C10.3151 14.8863 10.9417 14.6269 11.5205 14.2833C12.0641 13.9643 12.5602 13.5733 12.9949 13.1213C13.4131 12.6904 13.745 12.1861 13.9732 11.6349L12.2646 11.1754C12.0954 11.5863 11.8422 11.9588 11.5205 12.27C11.1944 12.5979 10.8234 12.8799 10.4182 13.1077C9.98442 13.3452 9.52131 13.5268 9.04026 13.6482C7.87482 13.9827 6.62672 13.9062 5.51281 13.432C4.86796 13.1627 4.2829 12.7726 3.79043 12.2835C3.28259 11.7736 2.87193 11.1786 2.57786 10.5268C2.25321 9.83291 2.0617 9.08627 2.01292 8.32429H14.9239C14.9354 8.221 14.9354 8.11679 14.9239 8.0135V7.56759C14.9328 6.5734 14.7456 5.58691 14.3728 4.66238C14.0194 3.78476 13.5109 2.97512 12.8708 2.27065ZM1.98536 6.86493C2.03334 6.11886 2.21527 5.38696 2.52275 4.70292C2.80272 4.0661 3.20503 3.48806 3.70775 3.00033C4.2043 2.52632 4.789 2.15017 5.43013 1.8923C6.09131 1.63096 6.79792 1.49788 7.51078 1.50044C8.20972 1.4949 8.90292 1.62452 9.55074 1.88189C10.1986 2.13925 10.7883 2.51931 11.2862 3.00033C11.7894 3.48838 12.2 4.06032 12.4988 4.68941C12.825 5.37326 13.0167 6.11136 13.0638 6.86493H1.98536Z" transform="translate(93.3359 47.9473)" fill="white"/>
<path d="M12.733 12.5497V5.87452C12.7784 5.08504 12.6575 4.29485 12.3777 3.55323C12.098 2.81161 11.6655 2.13445 11.1071 1.56401C10.509 1.02607 9.80694 0.611344 9.04244 0.344417C8.27793 0.077489 7.46656 -0.0362117 6.65642 0.0100557C4.61797 0.0823419 2.64913 0.755756 1.007 1.94236L1.70973 3.21254C2.46874 2.66679 3.29228 2.21307 4.16241 1.86128C4.91688 1.58942 5.71486 1.45213 6.51863 1.4559C7.09279 1.42345 7.66753 1.50883 8.20612 1.70661C8.7447 1.90438 9.23528 2.21018 9.64648 2.60447C10.0356 3.02311 10.3359 3.5135 10.5299 4.04707C10.7239 4.58064 10.8077 5.14673 10.7764 5.71237V7.06363C10.0958 6.78582 9.38324 6.59069 8.6544 6.48258C7.88095 6.34929 7.09724 6.28148 6.31194 6.2799C5.45096 6.27072 4.59291 6.37988 3.76282 6.6042C3.04745 6.79434 2.37136 7.10528 1.76485 7.52305C1.23098 7.89975 0.784784 8.38336 0.455831 8.94188C0.152612 9.49392 -0.00377548 10.112 0.00112381 10.739C-0.0127828 11.346 0.102581 11.9491 0.33984 12.5098C0.5771 13.0706 0.931031 13.5766 1.37903 13.9956C1.84043 14.4177 2.37773 14.7522 2.96363 14.982C3.59737 15.2178 4.27002 15.3369 4.94782 15.3333C6.14254 15.3396 7.32379 15.0857 8.40637 14.5901C9.43668 14.1312 10.3358 13.4304 11.0244 12.5497V13.7118C11.0209 13.9049 11.0598 14.0965 11.1382 14.2737C11.2166 14.4508 11.3329 14.6094 11.4791 14.7388C11.8086 15.001 12.227 15.1313 12.6503 15.1036C12.9001 15.095 13.1488 15.0679 13.3944 15.0225V13.347C12.9672 13.347 12.733 13.0767 12.733 12.5497ZM10.7626 10.6715C10.7617 10.8627 10.7194 11.0515 10.6386 11.2255C10.544 11.4342 10.4082 11.6225 10.239 11.7795C9.73476 12.4319 9.05812 12.9366 8.28236 13.2389C7.41463 13.6159 6.47561 13.8093 5.52654 13.8064C5.05539 13.8012 4.5889 13.7142 4.14863 13.5497C3.72546 13.3886 3.33735 13.1502 3.00496 12.847C2.68776 12.5553 2.43052 12.2067 2.24712 11.8201C2.06476 11.4158 1.97087 10.9784 1.97153 10.5364C1.97913 10.0765 2.1106 9.62685 2.35259 9.23292C2.59458 8.83899 2.93848 8.51482 3.34944 8.29327C4.31 7.74445 5.40729 7.46842 6.51863 7.49603C7.24474 7.49459 7.96926 7.56248 8.68195 7.69872C9.37656 7.83222 10.0587 8.02204 10.7213 8.26625L10.7626 10.6715Z" transform="translate(115.755 47.9375)" fill="white"/>
<path d="M21.3714 1.79937C21.0416 1.23769 20.5662 0.77151 19.9935 0.448111C19.3238 0.132485 18.5865 -0.02046 17.8439 0.00219587C16.595 0.0150028 15.3768 0.383194 14.3372 1.06204C13.2976 1.74089 12.4815 2.70118 11.9878 3.82626C11.8545 2.7982 11.3686 1.84519 10.6099 1.12374C9.77113 0.391822 8.67222 0.0131867 7.55095 0.0697578C6.3733 0.0582785 5.2183 0.387267 4.23018 1.01564C3.18859 1.69 2.34723 2.62231 1.79128 3.71816V0.312985H-1.26151e-06V15.0958H1.97041V6.04232C2.29981 4.86266 2.964 3.79896 3.8857 2.97497C4.70882 2.22384 5.79275 1.80832 6.91711 1.81288C7.4029 1.77723 7.88963 1.8685 8.32774 2.07738C8.76585 2.28626 9.13968 2.6053 9.41112 3.00199C10.0367 4.18326 10.3135 5.51235 10.2103 6.83956V15.0958H12.1807V6.06935C12.348 5.4646 12.6033 4.88664 12.9386 4.35325C13.2476 3.84849 13.6332 3.39284 14.0822 3.00199C14.4905 2.63863 14.9558 2.34207 15.4601 2.12367C15.9762 1.91702 16.5286 1.81144 17.0861 1.81288C17.5745 1.78009 18.0629 1.87547 18.5013 2.08922C18.9396 2.30296 19.312 2.62734 19.5801 3.02901C20.2277 4.19365 20.5195 5.51657 20.4206 6.83956V15.0958H22.4461V6.43419C22.4395 5.55754 22.3426 4.68379 22.1568 3.82626C22.0224 3.10954 21.7563 2.42275 21.3714 1.79937Z" transform="translate(138.408 47.8916)" fill="white"/>
<path d="M11.5744 7.45895C11.2044 6.896 10.6978 6.43175 10.1001 6.10769C9.41952 5.7799 8.66694 5.62209 7.9092 5.64826C6.69192 5.64492 5.49822 5.97737 4.46443 6.60765C3.39632 7.26742 2.53358 8.20228 1.97041 9.31017V0H-3.36404e-06V20.7283H1.97041V11.6749C2.14318 11.0778 2.41305 10.512 2.7696 9.99931C3.11628 9.48992 3.53896 9.03442 4.0235 8.64806C4.49486 8.27716 5.01954 7.97663 5.58053 7.75622C6.10539 7.54514 6.66675 7.43504 7.23402 7.43192C7.73822 7.40427 8.24122 7.50406 8.69481 7.72174C9.1484 7.93941 9.53739 8.26768 9.8245 8.67508C10.4949 9.82247 10.8018 11.1395 10.7064 12.4586V20.7148H12.6768V12.0667C12.6867 11.1951 12.5989 10.3251 12.415 9.47232C12.2732 8.75332 11.9875 8.069 11.5744 7.45895Z" transform="translate(170.582 42.2578)" fill="white"/>
<path d="M12.8886 12.2829V-5.15464e-07H10.932V9.29666C10.7165 9.89954 10.4049 10.4651 10.0088 10.9722C9.64743 11.4544 9.22098 11.8863 8.74109 12.2559C7.81339 12.9704 6.66883 13.3604 5.48923 13.3639C3.14678 13.3639 1.98934 11.6884 1.98934 8.33727V-5.15464e-07H0.0189268V8.67508C-0.0970262 10.3529 0.321912 12.0246 1.21771 13.4585C1.64665 14.0015 2.20555 14.4324 2.8449 14.7128C3.48424 14.9933 4.18427 15.1148 4.88294 15.0665C6.1473 15.0654 7.38857 14.7342 8.47929 14.1071C9.61346 13.4729 10.5405 12.5357 11.1524 11.4046V13.1072C11.1294 13.5538 11.288 13.9912 11.5934 14.3233C11.7364 14.4776 11.9109 14.6006 12.1055 14.6844C12.3002 14.7682 12.5107 14.811 12.7233 14.8098H13.0264C13.2144 14.8255 13.4034 14.8255 13.5913 14.8098V13.0802C13.1229 13.0802 12.8886 12.8099 12.8886 12.2829Z" transform="translate(192.872 48.2051)" fill="white"/>
<path d="M14.0409 10.5533C13.7275 9.65858 13.2616 8.82244 12.663 8.08053C12.0792 7.35797 11.3468 6.76405 10.5134 6.3374C9.6312 5.89541 8.65176 5.67268 7.66118 5.6888C6.49473 5.66734 5.34821 5.98724 4.36798 6.60765C3.39774 7.24635 2.57218 8.07434 1.94285 9.03992V0H-8.41009e-06V20.7283H1.76371V17.8636C2.33534 18.7985 3.13573 19.5787 4.09238 20.1338C5.08218 20.7171 6.21705 21.0211 7.37181 21.0121C8.34779 21.018 9.31282 20.8103 10.1965 20.404C11.0844 20.0178 11.8817 19.4567 12.539 18.7555C13.8758 17.2615 14.6064 15.338 14.5921 13.3504C14.5648 12.3949 14.3786 11.4501 14.0409 10.5533ZM12.1118 15.58C11.833 16.2679 11.4421 16.9068 10.9544 17.4718C10.4669 18.0357 9.86662 18.4956 9.19066 18.823C8.48352 19.1629 7.70452 19.3342 6.9171 19.323C6.37631 19.3172 5.84048 19.2213 5.33251 19.0392C4.78855 18.8537 4.27373 18.5945 3.80303 18.269C3.3373 17.954 2.92762 17.566 2.59047 17.1204C2.25834 16.7051 2.04439 16.2109 1.97041 15.6881V11.0803C2.20012 10.5956 2.49183 10.1415 2.8385 9.72906C3.17616 9.28534 3.57497 8.88971 4.0235 8.55347C4.45998 8.21127 4.94807 7.93775 5.47029 7.74271C6.00581 7.53811 6.57668 7.43716 7.15134 7.44544C7.90774 7.4357 8.6551 7.60733 9.32844 7.9454C9.98848 8.27307 10.5707 8.73349 11.0371 9.29666C11.5127 9.8704 11.8854 10.5192 12.1394 11.2154C12.3942 11.9093 12.5292 12.64 12.539 13.3775C12.5348 14.1311 12.3901 14.8775 12.1118 15.58Z" transform="translate(215.833 42.2578)" fill="white"/>
</svg>
