<svg width="33" height="33" viewBox="0 0 33 33" fill="none" xmlns="http://www.w3.org/2000/svg">
<circle cx="16.5" cy="16.5" r="16.5" fill="#BC519E"/>
<path d="M9.50694 8.712C10.3869 8.712 10.8269 9.086 10.8269 9.834C10.8269 10.6113 10.3869 11 9.50694 11H2.07094C1.17628 11 0.728942 10.6113 0.728942 9.834C0.728942 9.086 1.17628 8.712 2.07094 8.712H4.35894V-1.32L2.24694 -0.0219997C2.04161 0.0953334 1.85828 0.154 1.69694 0.154C1.38894 0.154 1.12494 0.0220002 0.904942 -0.242C0.699609 -0.506 0.596942 -0.799333 0.596942 -1.122C0.596942 -1.54733 0.787609 -1.87733 1.16894 -2.112L4.57894 -4.224C5.01894 -4.488 5.43694 -4.62 5.83294 -4.62C6.24361 -4.62 6.57361 -4.49533 6.82294 -4.246C7.07228 -3.99667 7.19694 -3.652 7.19694 -3.212V8.712H9.50694Z" transform="translate(12 13)" fill="white"/>
</svg>
