<svg width="33" height="33" viewBox="0 0 33 33" fill="none" xmlns="http://www.w3.org/2000/svg">
<circle cx="16.5" cy="16.5" r="16.5" fill="#BC519E"/>
<path d="M9.4302 8.712C10.3102 8.712 10.7502 9.086 10.7502 9.834C10.7502 10.6113 10.3102 11 9.4302 11H1.0702C0.688866 11 0.3882 10.89 0.1682 10.67C-0.0518002 10.4353 -0.1618 10.1493 -0.1618 9.812C-0.1618 9.372 0.00686643 8.976 0.3442 8.624L5.3602 3.234C5.9762 2.55933 6.42353 1.94333 6.7022 1.386C6.99553 0.814 7.1422 0.249333 7.1422 -0.308C7.1422 -0.997333 6.9442 -1.52533 6.5482 -1.892C6.1522 -2.25867 5.58753 -2.442 4.8542 -2.442C4.25287 -2.442 3.6662 -2.32467 3.0942 -2.09C2.53687 -1.87 1.9722 -1.562 1.4002 -1.166C1.25353 -1.06333 1.10687 -0.975333 0.9602 -0.902C0.813533 -0.843333 0.666866 -0.814 0.5202 -0.814C0.270866 -0.814 0.0508664 -0.931333 -0.1398 -1.166C-0.3158 -1.40067 -0.4038 -1.67933 -0.4038 -2.002C-0.4038 -2.222 -0.367134 -2.41267 -0.2938 -2.574C-0.2058 -2.73533 -0.0738002 -2.88933 0.1022 -3.036C0.747533 -3.54933 1.50287 -3.95267 2.3682 -4.246C3.23353 -4.554 4.09887 -4.708 4.9642 -4.708C6.47487 -4.708 7.67753 -4.32667 8.5722 -3.564C9.48153 -2.80133 9.9362 -1.77467 9.9362 -0.484C9.9362 0.410667 9.74553 1.254 9.3642 2.046C8.98287 2.82333 8.33753 3.696 7.4282 4.664L3.6222 8.712H9.4302Z" transform="translate(12 13)" fill="white"/>
</svg>
