<?xml version="1.0" encoding="UTF-8"?>
<svg width="50px" height="90px" viewBox="0 0 50 90" version="1.1" xmlns="http://www.w3.org/2000/svg" xmlns:xlink="http://www.w3.org/1999/xlink">
    <!-- Generator: Sketch 50.2 (55047) - http://www.bohemiancoding.com/sketch -->
    <title>noun_Arrow_1800420</title>
    <desc>Created with Sketch.</desc>
    <defs></defs>
    <g id="Page-1" stroke="none" stroke-width="1" fill="none" fill-rule="evenodd">
        <g id="Artboard" transform="translate(-24.000000, -18.000000)" fill="#000000" fill-rule="nonzero">
            <g id="noun_Arrow_1800420" transform="translate(49.000000, 63.000000) rotate(90.000000) translate(-49.000000, -63.000000) translate(4.000000, 38.000000)">
                <path d="M67.2,44.9 C67.8,45.5 68.1,46.2 68.1,47 C68.1,47.8 67.8,48.5 67.2,49.1 C66.6,49.7 65.9,50 65.1,50 C64.3,50 63.6,49.7 63,49.1 C62.4,48.5 62.1,47.8 62.1,47 C62.1,46.8 62.1,46.6 62.2,46.4 C62.2,46.2 62.3,46 62.4,45.8 C62.5,45.6 62.6,45.5 62.7,45.3 C62.8,45.1 62.9,45 63.1,44.9 C63.8,44.2 64.8,43.9 65.8,44.1 C66,44.1 66.2,44.2 66.4,44.3 C66.6,44.4 66.7,44.5 66.9,44.6 C66.9,44.6 67.1,44.7 67.2,44.9 Z M77.6,30.2 C76.4,31.4 76.4,33.2 77.6,34.4 C78.2,35 78.9,35.3 79.7,35.3 C80.5,35.3 81.2,35 81.8,34.4 C83,33.2 83,31.4 81.8,30.2 C80.7,29.1 78.8,29.1 77.6,30.2 Z M70.3,37.5 C69.1,38.7 69.1,40.5 70.3,41.7 C70.9,42.3 71.6,42.6 72.4,42.6 C73.2,42.6 73.9,42.3 74.5,41.7 C75.7,40.5 75.7,38.7 74.5,37.5 C73.3,36.4 71.5,36.4 70.3,37.5 Z M89.9,24.4 C89.9,24.2 89.8,24 89.7,23.8 C89.6,23.6 89.5,23.4 89.4,23.3 C89.3,23.1 89.2,23 89,22.8 C87.9,21.7 85.9,21.7 84.8,22.8 C84.7,22.9 84.5,23.1 84.4,23.3 C84.3,23.5 84.2,23.6 84.1,23.8 C84,24 84,24.2 83.9,24.4 C83.9,24.6 83.8,24.8 83.8,25 C83.8,25.2 83.8,25.4 83.9,25.6 C83.9,25.8 84,26 84.1,26.2 C84.2,26.4 84.3,26.6 84.4,26.7 C84.5,26.9 84.6,27 84.8,27.2 C84.9,27.3 85.1,27.5 85.2,27.6 C85.4,27.7 85.5,27.8 85.7,27.9 C85.9,28 86.1,28 86.3,28.1 C86.5,28.1 86.7,28.2 86.9,28.2 C87.7,28.2 88.4,27.9 89,27.3 C89.1,27.2 89.3,27 89.4,26.8 C89.5,26.6 89.6,26.5 89.7,26.3 C89.8,26.1 89.8,25.9 89.9,25.7 C89.9,25.5 90,25.3 90,25.1 C90,24.8 90,24.6 89.9,24.4 Z M77.6,15.6 C76.4,16.8 76.4,18.6 77.6,19.8 C78.2,20.4 78.9,20.7 79.7,20.7 C80.5,20.7 81.2,20.4 81.8,19.8 C83,18.6 83,16.8 81.8,15.6 C80.7,14.4 78.8,14.4 77.6,15.6 Z M70.3,8.3 C69.1,9.5 69.1,11.3 70.3,12.5 C70.9,13.1 71.6,13.4 72.4,13.4 C73.2,13.4 73.9,13.1 74.5,12.5 C75.7,11.3 75.7,9.5 74.5,8.3 C73.3,7.1 71.5,7.1 70.3,8.3 Z M66.7,0.6 C66.5,0.5 66.4,0.4 66.2,0.3 C66,0.2 65.8,0.2 65.6,0.1 C64.6,-0.1 63.6,0.2 62.9,0.9 C62.3,1.5 62,2.2 62,3 C62,3.2 62,3.4 62.1,3.6 C62.1,3.8 62.2,4 62.3,4.2 C62.4,4.4 62.5,4.5 62.6,4.7 C62.7,4.9 62.8,5 63,5.1 C63.6,5.7 64.3,6 65.1,6 C65.9,6 66.6,5.7 67.2,5.1 C67.8,4.5 68.1,3.8 68.1,3 C68.1,2.2 67.8,1.5 67.2,0.9 C67.1,0.8 66.9,0.7 66.7,0.6 Z M12.8,22 C11.2,22 9.8,23.3 9.8,25 C9.8,26.6 11.1,28 12.8,28 C14.4,28 15.8,26.7 15.8,25 C15.8,23.4 14.5,22 12.8,22 Z M22.7,22 C21.1,22 19.7,23.3 19.7,25 C19.7,26.6 21,28 22.7,28 C24.3,28 25.7,26.7 25.7,25 C25.7,23.4 24.3,22 22.7,22 Z M32.6,22 C31,22 29.6,23.3 29.6,25 C29.6,26.6 30.9,28 32.6,28 C34.2,28 35.6,26.7 35.6,25 C35.5,23.4 34.2,22 32.6,22 Z M3,22 C1.4,22 0,23.3 0,25 C0,26.6 1.3,28 3,28 C4.6,28 6,26.7 6,25 C5.9,23.4 4.6,22 3,22 Z M52.3,22 C50.7,22 49.3,23.3 49.3,25 C49.3,26.6 50.6,28 52.3,28 C53.9,28 55.3,26.7 55.3,25 C55.3,23.4 54,22 52.3,22 Z M65.2,25 C65.2,23.4 63.9,22 62.2,22 C60.6,22 59.2,23.3 59.2,25 C59.2,26.6 60.5,28 62.2,28 C63.8,28 65.2,26.6 65.2,25 Z M72.1,28 C73.7,28 75.1,26.7 75.1,25 C75.1,23.4 73.8,22 72.1,22 C70.5,22 69.1,23.3 69.1,25 C69.1,26.6 70.4,28 72.1,28 Z M42.4,22 C40.8,22 39.4,23.3 39.4,25 C39.4,26.6 40.7,28 42.4,28 C44,28 45.4,26.7 45.4,25 C45.4,23.4 44.1,22 42.4,22 Z" id="Shape"></path>
            </g>
        </g>
    </g>
</svg>