<svg width="41" height="76" viewBox="0 0 41 76" fill="none" xmlns="http://www.w3.org/2000/svg">
<path d="M56.7467 36.8147C57.2533 37.3071 57.5067 37.8816 57.5067 38.5381C57.5067 39.1946 57.2533 39.769 56.7467 40.2614C56.24 40.7538 55.6489 41 54.9733 41C54.2978 41 53.7067 40.7538 53.2 40.2614C52.6933 39.769 52.44 39.1946 52.44 38.5381C52.44 38.3739 52.44 38.2098 52.5244 38.0457C52.5244 37.8816 52.6089 37.7174 52.6933 37.5533C52.7778 37.3892 52.8622 37.3071 52.9467 37.143C53.0311 36.9789 53.1156 36.8968 53.2844 36.8147C53.8756 36.2403 54.72 35.9941 55.5644 36.1582C55.7333 36.1582 55.9022 36.2403 56.0711 36.3223C56.24 36.4044 56.3244 36.4865 56.4933 36.5685C56.4933 36.5685 56.6622 36.6506 56.7467 36.8147ZM65.5289 24.7513C64.5155 25.736 64.5155 27.2132 65.5289 28.198C66.0356 28.6904 66.6267 28.9365 67.3022 28.9365C67.9778 28.9365 68.5689 28.6904 69.0756 28.198C70.0889 27.2132 70.0889 25.736 69.0756 24.7513C68.1467 23.8486 66.5422 23.8486 65.5289 24.7513ZM59.3644 30.742C58.3511 31.7267 58.3511 33.2039 59.3644 34.1887C59.8711 34.681 60.4622 34.9272 61.1378 34.9272C61.8133 34.9272 62.4044 34.681 62.9111 34.1887C63.9244 33.2039 63.9244 31.7267 62.9111 30.742C61.8978 29.8393 60.3778 29.8393 59.3644 30.742ZM75.9156 19.9915C75.9156 19.8274 75.8311 19.6633 75.7467 19.4992C75.6622 19.335 75.5778 19.1709 75.4933 19.0888C75.4089 18.9247 75.3244 18.8426 75.1556 18.6785C74.2267 17.7758 72.5378 17.7758 71.6089 18.6785C71.5245 18.7606 71.3556 18.9247 71.2711 19.0888C71.1867 19.253 71.1022 19.335 71.0178 19.4992C70.9333 19.6633 70.9333 19.8274 70.8489 19.9915C70.8489 20.1557 70.7645 20.3198 70.7645 20.4839C70.7645 20.6481 70.7645 20.8122 70.8489 20.9763C70.8489 21.1404 70.9333 21.3046 71.0178 21.4687C71.1022 21.6328 71.1867 21.797 71.2711 21.879C71.3556 22.0431 71.44 22.1252 71.6089 22.2893C71.6933 22.3714 71.8622 22.5355 71.9467 22.6176C72.1156 22.6997 72.2 22.7817 72.3689 22.8638C72.5378 22.9459 72.7067 22.9459 72.8756 23.0279C73.0444 23.0279 73.2133 23.11 73.3822 23.11C74.0578 23.11 74.6489 22.8638 75.1556 22.3714C75.24 22.2893 75.4089 22.1252 75.4933 21.9611C75.5778 21.797 75.6622 21.7149 75.7467 21.5508C75.8311 21.3866 75.8311 21.2225 75.9156 21.0584C75.9156 20.8942 76 20.7301 76 20.566C76 20.3198 76 20.1557 75.9156 19.9915ZM65.5289 12.7699C64.5155 13.7547 64.5155 15.2318 65.5289 16.2166C66.0356 16.709 66.6267 16.9552 67.3022 16.9552C67.9778 16.9552 68.5689 16.709 69.0756 16.2166C70.0889 15.2318 70.0889 13.7547 69.0756 12.7699C68.1467 11.7851 66.5422 11.7851 65.5289 12.7699ZM59.3644 6.77919C58.3511 7.76396 58.3511 9.24112 59.3644 10.2259C59.8711 10.7183 60.4622 10.9645 61.1378 10.9645C61.8133 10.9645 62.4044 10.7183 62.9111 10.2259C63.9244 9.24112 63.9244 7.76396 62.9111 6.77919C61.8978 5.79442 60.3778 5.79442 59.3644 6.77919ZM56.3244 0.460237C56.1556 0.378173 56.0711 0.296108 55.9022 0.214043C55.7333 0.131979 55.5644 0.13198 55.3956 0.0499157C54.5511 -0.114213 53.7067 0.131979 53.1156 0.706429C52.6089 1.19882 52.3556 1.77327 52.3556 2.42978C52.3556 2.59391 52.3556 2.75804 52.44 2.92217C52.44 3.08629 52.5244 3.25042 52.6089 3.41455C52.6933 3.57868 52.7778 3.66075 52.8622 3.82487C52.9467 3.989 53.0311 4.07107 53.2 4.15313C53.7067 4.64552 54.2978 4.89171 54.9733 4.89171C55.6489 4.89171 56.24 4.64552 56.7467 4.15313C57.2533 3.66074 57.5067 3.08629 57.5067 2.42978C57.5067 1.77327 57.2533 1.19882 56.7467 0.706429C56.6622 0.624365 56.4933 0.542302 56.3244 0.460237ZM10.8089 18.022C9.45778 18.022 8.27556 19.0888 8.27556 20.4839C8.27556 21.797 9.37333 22.9459 10.8089 22.9459C12.16 22.9459 13.3422 21.879 13.3422 20.4839C13.3422 19.1709 12.2444 18.022 10.8089 18.022ZM19.1689 18.022C17.8178 18.022 16.6356 19.0888 16.6356 20.4839C16.6356 21.797 17.7333 22.9459 19.1689 22.9459C20.52 22.9459 21.7022 21.879 21.7022 20.4839C21.7022 19.1709 20.52 18.022 19.1689 18.022ZM27.5289 18.022C26.1778 18.022 24.9956 19.0888 24.9956 20.4839C24.9956 21.797 26.0933 22.9459 27.5289 22.9459C28.88 22.9459 30.0622 21.879 30.0622 20.4839C29.9778 19.1709 28.88 18.022 27.5289 18.022ZM2.53333 18.022C1.18222 18.022 0 19.0888 0 20.4839C0 21.797 1.09778 22.9459 2.53333 22.9459C3.88444 22.9459 5.06667 21.879 5.06667 20.4839C4.98222 19.1709 3.88444 18.022 2.53333 18.022ZM44.1644 18.022C42.8133 18.022 41.6311 19.0888 41.6311 20.4839C41.6311 21.797 42.7289 22.9459 44.1644 22.9459C45.5156 22.9459 46.6978 21.879 46.6978 20.4839C46.6978 19.1709 45.6 18.022 44.1644 18.022ZM55.0578 20.4839C55.0578 19.1709 53.96 18.022 52.5244 18.022C51.1733 18.022 49.9911 19.0888 49.9911 20.4839C49.9911 21.797 51.0889 22.9459 52.5244 22.9459C53.8756 22.9459 55.0578 21.797 55.0578 20.4839ZM60.8844 22.9459C62.2356 22.9459 63.4178 21.879 63.4178 20.4839C63.4178 19.1709 62.32 18.022 60.8844 18.022C59.5333 18.022 58.3511 19.0888 58.3511 20.4839C58.3511 21.797 59.4489 22.9459 60.8844 22.9459ZM35.8044 18.022C34.4533 18.022 33.2711 19.0888 33.2711 20.4839C33.2711 21.797 34.3689 22.9459 35.8044 22.9459C37.1556 22.9459 38.3378 21.879 38.3378 20.4839C38.3378 19.1709 37.24 18.022 35.8044 18.022Z" transform="translate(41) rotate(90)" fill="#BC519E"/>
</svg>
