<svg id="Layer_1" data-name="Layer 1" xmlns="http://www.w3.org/2000/svg" viewBox="0 0 156.5 152"><title>SC_Final Logo</title><path d="M146,61.54c-2.42,1.34-8.77,8.33-10.84,10.07-4.35,3.66-4,3.47-8.11,7.23C118.13,87,110.9,92.93,98.88,96.09c-9.36,2.47-22.26,1.26-27.62-6.45a23,23,0,0,1-4-14.43c.29-5.12,2.15-12.29,6.28-16,3.72-3.4,9.27-1.38,9,3.67a33.23,33.23,0,0,1-.78,4.52c.94.49,3-4.3,3.12-5,1.35-5.56-1.48-10.63-7.36-11.27C67.54,50,61,58.33,58.29,67a42.78,42.78,0,0,0-1.41,9.68c-.21,2.87-.6,6.86-3.75,8-1.85.69-3.73,1.36-5.57,2.08-1.53.6-3.08,1.53-4.8,1.29-1.19-.16-1.63-1.06-2.36-1.92a14.8,14.8,0,0,0-1.66-1.49C32,78.83,23,72,21.07,62.74c-2-9.54,7.88-19.09,16.71-20.65a7.66,7.66,0,0,1,6.09,1.3c2.41,1.93,2.93,5.52,2.07,8.48s-2.85,5.45-4.79,7.85C46.41,58,49.67,52,48.9,46.51s-5.09-10.14-10.32-12A21,21,0,0,0,22.47,36,26,26,0,0,0,9,63.28C10.24,70.11,14.3,76.16,19.29,81S30.2,89.56,36.07,93.27L25,99.53c-4.15,2.35-8.85,5.13-10.09,10.12a7.29,7.29,0,0,0,1.81,7,8,8,0,0,0,6.52,1.66c5.2-.76,10-3.66,14-6.94,3.15-2.57,5-6.09,6.23-9.9A29.92,29.92,0,0,0,44.94,96c.19-1.56-.29-3.72.74-5.07s3.47-2.25,5-2.89c3.06-1.3,4-2.2,5.53.5,1.06,1.88,1.2,4.86,2,6.94,8.41,22.39,34.25,16.38,50,5.85a111.23,111.23,0,0,0,11.42-8.46c3.69-3.22,6.57-7.23,10.23-10.49a86,86,0,0,0,6.31-6.21c1.39-1.53,2.72-3.13,4-4.81,2-2.62,5.47-6.58,6-9.82A0,0,0,0,0,146,61.54ZM38.07,98.87a12.32,12.32,0,0,1-2.81,5.76,71,71,0,0,1-7.48,7.85c-1.78,1.62-7,4-8.93,1.44-2.9-3.88,6.22-12.16,8.82-13.66,2.37-1.37,4.9-3.18,7.55-4a4.28,4.28,0,0,1,2.35-.08A4.87,4.87,0,0,1,38.07,98.87Z"/><path d="M17,110.9a.34.34,0,0,0-.12.12s.07.09.09.09"/><path d="M25.1,87.94h0s0,0,0,0,0,0,0,0S25.1,87.93,25.1,87.94Z"/><path d="M43.2,101.8v0h-.08a.1.1,0,0,0,0,0A.11.11,0,0,0,43.2,101.8Z"/><path d="M150.66,52.88c-3.71,0-3.72,5.77,0,5.77S154.37,52.88,150.66,52.88Z"/></svg>